<?xml version="1.0" encoding="UTF-8" standalone="no"?>
<svg height="260pt" viewBox="0 0 224.99999 237.7329" width="246.5pt" xmlns="http://www.w3.org/2000/svg" xmlns:xlink="http://www.w3.org/1999/xlink">
   <clipPath id="a">
      <path d="m0 0h408.26172v474h-408.26172zm0 0"/>
   </clipPath>
   <g transform="translate(-89.823049 -92.570492)">
      <path d="m96.184952 103.01024c0 0 60.874078 25.43447 106.707528-7.066845 0 0 52.9991 32.501315 105.27791 7.066845 9.31338 55.81881 10.743 155.44632-105.99382 223.98017-129.627541-84.78232-110.291454-200.66487-105.991618-223.98017" fill="#fff"/>
      <g clip-path="url(#a)" fill="none" stroke="#2e3394" stroke-width="100.1969986" transform="matrix(.56218491 0 0 .56218491 88.580084 92.570285)">
         <path d="m135.27344 5874.5969c0 0 1082.81246-452.4219 1898.08596 125.7031 0 0 942.7344-578.125 1872.6562-125.7031 165.6641-992.8907 191.0938-2765.0391-1885.3906-3984.1016-2305.78125 1508.086-1961.835937 3569.375-1885.35156 3984.1016zm0 0" transform="matrix(.1 0 0 -.1 0 606.03)"/>
      </g>
      <path d="m109.07568 122.79431c0 0 50.84918 15.54354 94.92799-11.30738 20.66689 11.76196 41.47212 15.69945 52.60382 14.13148 11.12951-1.56797-39.37271 85.45211-122.04244 109.76441-32.58915-41.85862-25.48937-112.58851-25.48937-112.58851" fill="#2e3394"/>
      <path d="m158.49085 273.29517c0 0 89.35227-20.59222 143.1112-134.2502.76861 122.74956-100.14139 171.69479-100.14139 171.69479 0 0-25.06334-15.54134-42.96981-37.44459" fill="#2e3394"/>
      <path d="m172.1458 251.87504c.65661 1.25174 2.48371 3.34457 6.69351 1.2737 2.27949-1.12217 4.55238-2.90974 3.36652-5.3188-.87402-1.77439-2.84386-1.39667-5.56475-.76641l-2.75602.64783c-4.14612.97724-8.15169 1.92373-10.61564-3.08323-1.24734-2.53642-2.06646-7.68612 5.41762-11.36887 7.06684-3.47852 11.21076.15372 12.61622 2.92731l-4.62705 2.27729c-.62806-.95308-2.19822-3.17108-6.40802-1.10021-1.8293.90037-3.68715 2.64183-2.67258 4.70171.87402 1.77439 2.53862 1.42962 3.61248 1.17707l6.29164-1.40546c3.52244-.78838 7.03829-.9421 9.05205 3.14472 3.37092 6.84724-3.40165 10.92747-5.4264 11.92447-8.4152 4.14172-12.21654.0681-13.60663-2.75383z" fill="#2e3394"/>
      <path d="m198.4543 246.4706l-4.4887 2.94928-13.92506-21.20053 4.48869-2.94927 5.66358 8.62164 2.53642-14.00851 5.80632-3.81452-3.06567 14.44113 17.5002 6.4256-5.77557 3.79255-12.75457-4.93449-.69834 3.50268z" fill="#2e3394"/>
      <path d="m221.34576 224.89676c2.20921-1.87762 4.17686-5.86781-.42164-11.27884-4.59849-5.41103-8.85441-4.11317-11.06362-2.23337-2.20921 1.87761-4.17686 5.86561.42164 11.27664 4.5985 5.41103 8.85221 4.11317 11.06362 2.23557zm-11.43915-22.36003l-3.43899 2.92072-2.63085-3.0964 3.43899-2.92073zm-2.95147 5.4286c2.59132-2.20263 10.35211-6.89555 18.06239 2.17627 7.70808 9.07182 1.82491 15.97176-.76642 18.17438-2.59352 2.20263-10.35211 6.89555-18.06238-2.17627-7.71028-9.07182-1.8271-15.97176.76641-18.17438zm-2.36952-.90696l-3.43899 2.92072-2.63085-3.09641 3.43899-2.92073z" fill="#2e3394"/>
      <path d="m227.99535 188.33936l3.81232-4.08462 12.58328 23.69521-3.49389 3.74424-24.45724-10.97138 3.9331-4.2142 17.81423 9.08061.0483-.0527-10.2401-17.19715" fill="#2e3394"/>
      <path d="m252.2813 191.89255l3.13374-4.18565c2.61548-3.49828.0153-7.27765-3.3204-9.77455-5.99957-4.4865-8.64579-1.95008-10.02051-.11419l-3.08982 4.12855zm-19.95756-8.35372l6.80112-9.09159c5.19142-6.93947 12.09356-4.01434 15.94101-1.13534 4.35693 3.25891 9.32657 9.70647 4.24274 16.5032l-6.67155 8.91809z" fill="#2e3394"/>
      <path d="m259.71488 150.70592l-6.98339 11.72023 4.58312 2.72967 6.41462-10.76715 3.85404 2.29705-6.41462 10.76716 5.64382 3.36213 7.29742-12.2429 3.85404 2.29705-9.98976 16.76453-21.79126-12.98296 9.67793-16.24187z" fill="#2e3394"/>
      <path d="m130.0522 169.30853v-1.42962c.26572-.0791.70712-.19106 1.31982-.33819.86743-.21082 1.51526-.42823 1.94129-.65442.24157-.41066.36235-.97943.36235-1.70852l-.0198-2.34316.0395-4.52823-.0198-1.07166c.10761-2.62207.16032-3.97263.16032-4.05169l-.0395-2.64183.0615-1.07166-.10102-2.26411-.0417-.85646c-.0132-.13176-.0593-.34258-.14055-.63465-.54901-.25035-1.44279-.41066-2.67697-.47654-.29426-.0132-.52924-.0329-.70492-.0593l-.0395-1.74805 5.75581.23937c.71151.0264 1.15291.0395 1.3286.0395.79057 0 2.05768-.0527 3.80353-.16031.97723-.0659 1.59652-.10541 1.85126-.11859.0154.25254.0242.46336.0242.63685 0 .224-.0176.51607-.0483.87183-.53803.18666-1.14853.36234-1.84028.52704-.68736.1669-1.25393.3338-1.69534.50729-.0813.34478-.12078.84108-.12078 1.48891 0 .56877.0198 1.03214.0593 1.39009-.0395 2.23776-.0593 3.95945-.0593 5.16507l.0198 5.24194-.10102 2.6616.0813 3.97262-.0593.75324c0 .10761.0395.25913.11859.45677.81473.17349 1.55479.29208 2.22238.35796.12079.0131.52705.0681 1.221.15811.0549.39748.0813.72909.0813.99481 0 .14494-.009.37113-.0198.67418-.17569 0-.30964.007-.40407.0198-.42823.0264-.67638.0395-.74226.0395-.0944 0-.26792-.0198-.52266-.0593-.18886-.0264-1.07825-.11859-2.67257-.2767l-3.55758-.0417c-.71152 0-1.74365.0681-3.09641.19984-.885.079-1.46036.12517-1.72828.13834" fill="#fff"/>
      <path d="m146.97924 169.42931l.0417-1.44938c.29427-.0681.78399-.16691 1.46915-.29867.68296-.13176 1.36813-.28548 2.05329-.45677l.38211-.23937c.13396-.52705.20203-1.06947.20203-1.62507v-.12078l-.0813-4.58312.0198-1.92373-.0791-2.83727.0395-3.37311-.24156-6.6496c-.20204-.18446-.85207-.36893-1.95228-.55559-.27011-.0527-.65881-.15812-1.16829-.31623l-.48313-.12079v-1.39009l2.65501.10102c1.60969.15812 3.97482.23717 7.09978.23717 1.56797 0 3.20401-.0395 4.90594-.11858l.38211-.0198.98602.0198.40407-.0198h.84328l3.5993-.11858c.16251 0 .37333-.0154.63465-.0417.26133-.0264.50509-.0461.73348-.0593.0812.39748.13396.79496.16251 1.19244l.30085 3.73326c0 .39749-.0395.70274-.12078.91356-.48313.0659-.83889.0988-1.06728.0988-.26791 0-.48312-.0593-.64343-.17788-.0813-.0791-.23498-.37772-.46117-.89379-.56438-1.33738-1.04312-2.12796-1.4384-2.37391-.39529-.24376-1.4977-.36674-3.30503-.36674l-2.77359.0791c-1.17928.0132-2.1104.079-2.79336.19764-.14714.0285-.36235.0944-.64344.19984-.17349.30525-.26133.69614-.26133 1.17488l.0615 2.36733-.0615 2.70771c0 1.37911.0483 2.22897.14055 2.5474.12078.0813.2218.12737.30305.14055l1.42523.0198h2.41124c.53364 0 1.35716-.0659 2.46835-.19984.76422-.0922 1.23197-.19764 1.40765-.31622.32063-.21302.55121-.48093.69175-.80595.14055-.32282.24377-1.11339.31184-2.37171.0681 0 .24816-.007.54462-.022.18666-.011.31403-.0175.38211-.0175.14714 0 .4414.0175.885.0593l-.12078 3.17766c-.009.67418-.0307 1.25613-.0615 1.74585l.0417.4392c.0131.13176.0198 1.11119.0198 2.9383 0 .11858-.007.31842-.0198.59512-.25914.0527-.46337.0791-.6127.0791-.1076 0-.37333-.0395-.79277-.11859-.12078-.25034-.25474-.61489-.40187-1.09142-.30964-1.04532-.64344-1.65582-1.00579-1.8271-.64343-.31843-2.66598-.47655-6.06764-.47655-.4963 0-1.07167.0461-1.72828.13835-.0944.5556-.14055 1.19904-.14055 1.92593l.10102 5.95783c.0132 1.10022.13396 1.7766.36235 2.02694.14713.15812.65002.31843 1.50868.47654l.40407.0395c.60391.0395 1.13315.12517 1.58992.25693l.54242.12078c.0527.34918.0813.61709.0813.80596 0 .19984-.0198.45457-.0615.76202l-.38211-.0198-.62368.0198-2.85923-.15593c-.32062-.0153-1.82491-.022-4.50846-.022-.73787 0-1.4428.0395-2.11478.11858-1.05849.11858-1.63605.17788-1.73048.17788-.87182 0-1.46914-.007-1.79196-.0175" fill="#fff"/>
      <path d="m173.21307 168.07875c1.37472-.68956 2.58254-1.17928 3.61907-1.47135.27011-.15811.44579-.37332.52704-.64563.0813-.27011.12078-1.30664.12078-3.10739 0-.25255-.0264-.72689-.0813-1.42962v-.47654l.022-4.20979-.022-2.98003.0417-.87402v-.79497c0-.19764.0264-.4963.0791-.89378l-.12078-.87402.0286-.21741c.0351-.22619.0527-.48971.0527-.79496 0-1.40327-.10761-2.44199-.32062-3.11837-.49851-.36235-1.30226-.68517-2.41565-.96626-.63245-.16031-1.11558-.34038-1.44938-.54242l.14055-1.21221c.22839-.0263.46336-.0395.70493-.0395 1.08923 0 2.1038.0593 3.0437.17788.9399.12078 2.24435.18008 3.91114.18008l2.05769-.0988c1.00797-.0132 1.78756-.0527 2.33877-.11859.40188-.0417.68516-.0615.84548-.0615.17568 0 .37112.007.58634.0198.0395.13176.0593.2745.0593.43042 0 .39089-.0198.67858-.0593.86085-.84768.30524-1.65801.52485-2.4376.65661-.7774.13396-1.221.25254-1.3286.36015-.17349.15811-.26133.39748-.26133.71591v1.55259c0 .21302.0131.57097.0395 1.07606.0286.78399.0417 1.32641.0417 1.63165 0 .19984-.0131.64344-.0417 1.33519v1.51307l-.0395 1.43401c0 .0659.007.16032.0198.2789.96626-.82131 2.25533-2.06207 3.86503-3.71789.75323-.78178 1.34836-1.37691 1.79196-1.78757.17568-.17349 1.11998-1.15511 2.83947-2.94269.54901-.74226.84548-1.17268.88501-1.29127l-.16032-.13835c-.83229-.15152-1.45816-.24156-1.87321-.26791-.2811-.0154-.73787-.1098-1.36813-.28988-.0264-.20862-.0417-.59293-.0417-1.15511l.022-.25474h.885c.42823 0 .997.0307 1.70193.09.70273.0593 1.24295.09 1.62067.09l4.85104-.0791c.76422-.0813 1.6097-.15372 2.53642-.2196l-.022 1.54821c-.22619.0549-.6698.14713-1.3264.28109-1.6119.50728-2.69894.89818-3.26331 1.17927-.56219.2789-1.12657.64344-1.69095 1.08923-.56218.4458-1.60311 1.36374-3.11837 2.75383-2.05329 1.87981-3.28088 3.03931-3.68495 3.47633.25474.29207.56438.62806.92673 1.01237l.6632.67637c.12078.13177.26792.29647.4436.49631l4.26689 4.86641 3.54441 4.34815c.40187.50289.67638.84108.82351 1.01237l.32281.35796c.22839.29207.3887.46336.48313.51607.12078.079.39529.18007.82571.29866.22839.0527.79936.28548 1.71072.69394.0264.23937.0417.42604.0417.55779 0 .15812-.0286.40407-.0813.73348l-2.21361-.0395c-.25694-.0395-.6654-.0725-1.22978-.0988l-1.97204-.0988-.42164.0198-2.78018-.0198c-.26791 0-1.01237.0417-2.23337.12738-.64343.0461-1.07385.0703-1.28906.0703-.10761 0-.26792-.007-.48313-.0198-.0659-.20862-.0988-.37771-.0988-.50728 0-.15592.0264-.3909.0791-.70493.59074-.19764 1.18806-.36235 1.79196-.4963.45678-.0791.75764-.19106.90697-.336.14713-.14713.2196-.30525.2196-.47873 0-.11859-.022-.21741-.0615-.29646-.12079-.30525-.32941-.64345-.62368-1.01238-.10761-.12078-1.06069-1.19025-2.85924-3.2128l-5.11016-5.64819c-.0549.47435-.0813 1.01018-.0813 1.60531 0 .83229.0264 1.53942.0813 2.12136.0131.11859.0329.98602.0593 2.59791l-.0395 1.80514.079 1.96106c.37552.3316 1.04751.62368 2.01377.87402.56438.14494 1.07386.35357 1.53063.62807.0395.26352.0593.45897.0593.59073 0 .10321-.0132.26792-.0395.48972-.63246.0264-1.12218.0395-1.47134.0395-.37772 0-.69395-.005-.94869-.0175l-2.86144-.12518c-.39089-.0242-.773-.0351-1.15072-.0351-.3887 0-.88061.0198-1.47134.0593l-3.56856-.0198c-.14713 0-.78618.0198-1.91494.0593l-.0198-1.11119" fill="#fff"/>
      <path d="m185.08703 281.6401l12.14847-4.49748 4.19881-11.54895 4.80053 11.54895 12.14408 4.80053-12.14408 5.39785-4.80053 13.04225-3.74863-12.74578z" fill="#fff"/>
   </g>
</svg>
